# xmcd
#
# Track frame offsets:
#	150
#	25925
#	61675
#	86485
#	115537
#	147052
#	172767
#	201777
#	236217
#
# Disc length: 3478
#
# Revision: 1
# Processed by: cddbd v1.5.1PL0 Copyright (c) Steve Scherf et al.
# Submitted via: CDex 1.51
# Normalized: r0:TDELIM( - )
#
DISCID=680d9409
DTITLE=Tony D'Aveni - Broken Hip
DYEAR=1900
DGENRE=Jazz
TTITLE0=Spring Forward, Fall Back - Tony D'Aveni
TTITLE1=Come Sunday - Duke Ellington
TTITLE2=How Deep Is the Ocean - Irving Berlin
TTITLE3=Chelsea Bridge - Billy Strayhorn
TTITLE4=Cherokee - Ray Noble
TTITLE5=Slow - Bevan Manson
TTITLE6=Broken Hip - Tony D'Aveni
TTITLE7=Dark Contrast - Tony D'Aveni
TTITLE8=Y.B.T. - Mark Weissman
EXTD=
EXTT0=
EXTT1=
EXTT2=
EXTT3=
EXTT4=
EXTT5=
EXTT6=
EXTT7=
EXTT8=
PLAYORDER=
